# xmcd
#
# Track frame offsets:
#	150
#	30506
#	70605
#	103371
#	138378
#	175968
#	216814
#	254867
#
# Disc length: 3858
#
# Revision: 1
# Processed by: cddbd v1.5.1PL0 Copyright (c) Steve Scherf et al.
# Submitted via: CDex 1.51
# Normalized: r0:TRMNUM
#
DISCID=780f1008
DTITLE=Novak and Volkman - Sapphire Sky
DYEAR=1996
DGENRE=New Age
TTITLE0=Butterfly
TTITLE1=The Little Ones (Alexis and Jesse)
TTITLE2=Northern Nights
TTITLE3=Peace Song
TTITLE4=Desert Winds
TTITLE5=Waterlillies
TTITLE6=Sapphire Sky
TTITLE7=Misty Moon
EXTD=YEAR: 1996
EXTT0=
EXTT1=
EXTT2=
EXTT3=
EXTT4=
EXTT5=
EXTT6=
EXTT7=
PLAYORDER=
